<?xml version="1.0" encoding="UTF-8"?>
<mxfile host="app.diagrams.net">
  <diagram name="Arquitectura App Reseñas de Libros" id="0">
    <mxGraphModel dx="1110" dy="661" grid="1" gridSize="10" guides="1" tooltips="1" connect="1" arrows="1" fold="1" page="1" pageScale="1" pageWidth="827" pageHeight="1169" math="0" shadow="0">
      <root>
        <mxCell id="0" />
        <mxCell id="1" parent="0" />
        
        <mxCell id="2" value="Frontend (Angular + Tailwind)" style="rounded=1;whiteSpace=wrap;html=1;fillColor=#DAE8FC;strokeColor=#6C8EBF;" vertex="1" parent="1">
          <mxGeometry x="60" y="60" width="220" height="160" as="geometry" />
        </mxCell>
        
        <mxCell id="3" value="- Listado de libros&#xa;- Detalle de libro&#xa;- Login/Registro&#xa;- Gestión JWT&#xa;- Formulario de reseñas" style="text;whiteSpace=wrap;html=1;" vertex="1" parent="2">
          <mxGeometry x="20" y="40" width="180" height="100" as="geometry" />
        </mxCell>
        
        <mxCell id="4" value="Backend (.NET Core API)" style="rounded=1;whiteSpace=wrap;html=1;fillColor=#D5E8D4;strokeColor=#82B366;" vertex="1" parent="1">
          <mxGeometry x="340" y="60" width="220" height="160" as="geometry" />
        </mxCell>
        
        <mxCell id="5" value="- Clean Architecture&#xa;- EF Core&#xa;- JWT Auth&#xa;- CRUDs&#xa;- Swagger Docs" style="text;whiteSpace=wrap;html=1;" vertex="1" parent="4">
          <mxGeometry x="20" y="40" width="180" height="100" as="geometry" />
        </mxCell>
        
        <mxCell id="6" value="PostgreSQL (DB)" style="rounded=1;whiteSpace=wrap;html=1;fillColor=#FFE6CC;strokeColor=#D79B00;" vertex="1" parent="1">
          <mxGeometry x="620" y="100" width="160" height="100" as="geometry" />
        </mxCell>
        
        <mxCell id="7" style="endArrow=block;html=1;strokeColor=#000000;" edge="1" source="2" target="4" parent="1">
          <mxGeometry relative="1" as="geometry" />
        </mxCell>
        
        <mxCell id="8" style="endArrow=block;html=1;strokeColor=#000000;" edge="1" source="4" target="6" parent="1">
          <mxGeometry relative="1" as="geometry" />
        </mxCell>
        
      </root>
    </mxGraphModel>
  </diagram>
</mxfile>
